<svg width="26" height="35" viewBox="0 0 26 35" fill="none" xmlns="http://www.w3.org/2000/svg">
<g filter="url(#filter0_d)">
<path d="M4.77533 26.3553L4.91933 14.6553L4.77533 1.22733C4.77533 1.22733 5.05133 1.20333 5.60333 1.15533C6.15533 1.10733 6.87533 1.04733 7.76333 0.975327C8.67533 0.903327 9.64733 0.843327 10.6793 0.795326C11.7353 0.747327 12.7553 0.723328 13.7393 0.723328C16.0913 0.723328 17.9153 1.44333 19.2113 2.88333C20.5073 4.32333 21.1553 6.48333 21.1553 9.36333C21.1553 11.1633 20.9153 12.6513 20.4353 13.8273C19.9793 14.9793 19.3553 15.8913 18.5633 16.5633C17.7953 17.2113 16.9313 17.6793 15.9713 17.9673C15.0113 18.2313 14.0153 18.3633 12.9833 18.3633C12.1433 18.3633 11.3273 18.3393 10.5353 18.2913C9.74333 18.2433 9.22733 18.2073 8.98733 18.1833V26.3553H4.77533ZM13.1633 14.9073C14.5073 14.9073 15.3953 14.7033 15.8273 14.2953C16.1633 13.9593 16.4033 13.3593 16.5473 12.4953C16.6913 11.6313 16.7633 10.4793 16.7633 9.03933C16.7633 7.86333 16.7033 6.97533 16.5833 6.37533C16.4633 5.77533 16.3193 5.35533 16.1513 5.11533C16.0073 4.85133 15.8633 4.65933 15.7193 4.53933C15.5273 4.39533 15.1793 4.27533 14.6753 4.17933C14.1953 4.05933 13.6073 3.99933 12.9113 3.99933C12.1433 3.99933 11.3993 4.03533 10.6793 4.10733C9.98333 4.17933 9.41933 4.25133 8.98733 4.32333V14.5473C9.17933 14.5953 9.67133 14.6673 10.4633 14.7633C11.2793 14.8593 12.1793 14.9073 13.1633 14.9073Z" fill="white"/>
</g>
<defs>
<filter id="filter0_d" x="0.77533" y="0.723328" width="24.38" height="33.632" filterUnits="userSpaceOnUse" color-interpolation-filters="sRGB">
<feFlood flood-opacity="0" result="BackgroundImageFix"/>
<feColorMatrix in="SourceAlpha" type="matrix" values="0 0 0 0 0 0 0 0 0 0 0 0 0 0 0 0 0 0 127 0" result="hardAlpha"/>
<feOffset dy="4"/>
<feGaussianBlur stdDeviation="2"/>
<feComposite in2="hardAlpha" operator="out"/>
<feColorMatrix type="matrix" values="0 0 0 0 0 0 0 0 0 0 0 0 0 0 0 0 0 0 0.25 0"/>
<feBlend mode="normal" in2="BackgroundImageFix" result="effect1_dropShadow"/>
<feBlend mode="normal" in="SourceGraphic" in2="effect1_dropShadow" result="shape"/>
</filter>
</defs>
</svg>
