<svg width="48" height="48" viewBox="0 0 48 48" fill="none" xmlns="http://www.w3.org/2000/svg">
<path d="M23.9998 0.666748C11.1198 0.666748 0.666504 11.1201 0.666504 24.0001C0.666504 36.8801 11.1198 47.3334 23.9998 47.3334C36.8798 47.3334 47.3332 36.8801 47.3332 24.0001C47.3332 11.1201 36.8798 0.666748 23.9998 0.666748ZM5.33317 24.0001C5.33317 13.6867 13.6865 5.33342 23.9998 5.33342C28.3165 5.33342 32.2832 6.80342 35.4332 9.27675L9.2765 35.4334C6.80317 32.2834 5.33317 28.3167 5.33317 24.0001ZM23.9998 42.6668C19.6832 42.6668 15.7165 41.1967 12.5665 38.7234L38.7232 12.5667C41.1965 15.7167 42.6665 19.6834 42.6665 24.0001C42.6665 34.3134 34.3132 42.6668 23.9998 42.6668Z" fill="black"/>
</svg>
